<svg xmlns="http://www.w3.org/2000/svg" width="40.52" height="44.503" viewBox="0 0 40.52 44.503">
    <defs>
        <style>
            .cls-1,.cls-7{fill:#d8e1e6}.cls-2,.cls-9{fill:#242a3c}.cls-10,.cls-3{fill:none}.cls-3,.cls-4,.cls-7{stroke:#242a3c}.cls-3{stroke-linecap:round;stroke-width:3px}.cls-4,.cls-5{fill:#4676e8}.cls-6{fill:#6591fa}.cls-7{stroke-miterlimit:10}.cls-8,.cls-9{stroke:none}
        </style>
    </defs>
    <g id="Group_327" data-name="Group 327" transform="translate(-50.722 -166.448)">
        <rect id="Rectangle_301" width="13.108" height="3.074" class="cls-1" data-name="Rectangle 301" rx="1.537" transform="translate(63.397 207.878)"/>
        <g id="Group_325" data-name="Group 325" transform="translate(50.784 170.989)">
            <g id="Exclusion_3" class="cls-2" data-name="Exclusion 3">
                <path d="M8.349 17.819a9.44 9.44 0 0 1-6.718-2.783l-.463-.462a2.504 2.504 0 0 1 0-3.536l9.869-9.868a2.484 2.484 0 0 1 1.768-.733c.667 0 1.295.26 1.767.733l5.413 5.412c.472.473.732 1.1.732 1.768 0 .668-.26 1.296-.732 1.768l-4.919 4.918A9.438 9.438 0 0 1 8.35 17.82zm3.023-12.003c-.457 0-.887.178-1.21.5l-4.97 4.972a1.7 1.7 0 0 0-.501 1.21c0 .458.177.888.5 1.21a4.51 4.51 0 0 0 3.21 1.33 4.51 4.51 0 0 0 3.21-1.33l2.97-2.97a1.714 1.714 0 0 0 0-2.421l-1.998-2a1.703 1.703 0 0 0-1.211-.5z" class="cls-8" transform="translate(0 11.602)"/>
                <path d="M8.349 17.319a8.94 8.94 0 0 0 6.364-2.636l4.918-4.919c.378-.377.586-.88.586-1.414 0-.534-.208-1.036-.586-1.414l-5.413-5.413a1.985 1.985 0 0 0-1.413-.586c-.535 0-1.037.209-1.415.586l-9.868 9.869c-.78.78-.78 2.049 0 2.828l.462.463a8.943 8.943 0 0 0 6.365 2.636m3.023-12.003a2.2 2.2 0 0 1 1.564.648l2 2c.417.417.647.973.647 1.564 0 .591-.23 1.147-.648 1.564l-2.97 2.97a5.007 5.007 0 0 1-3.564 1.476 5.007 5.007 0 0 1-3.563-1.476 2.197 2.197 0 0 1-.647-1.564c0-.59.23-1.146.647-1.564l4.97-4.971a2.2 2.2 0 0 1 1.564-.647M8.349 18.32a9.937 9.937 0 0 1-7.072-2.929l-.462-.463a3.005 3.005 0 0 1 0-4.242L10.683.816a2.98 2.98 0 0 1 2.122-.879c.801 0 1.554.313 2.12.88l5.413 5.412a2.98 2.98 0 0 1 .88 2.121 2.98 2.98 0 0 1-.88 2.121L15.42 15.39a9.934 9.934 0 0 1-7.071 2.929zm3.023-12.003c-.324 0-.628.126-.857.355l-4.97 4.97a1.213 1.213 0 0 0 0 1.714A4.013 4.013 0 0 0 8.4 14.538c1.08 0 2.094-.42 2.857-1.183l2.97-2.97a1.214 1.214 0 0 0 0-1.714l-1.999-2a1.205 1.205 0 0 0-.857-.355z" class="cls-9" transform="translate(0 11.602)"/>
            </g>
            <path id="Path_272" d="M0 0s3.176 4.355 4.324 4.974 4.576.47 7.576 1.484" class="cls-3" data-name="Path 272" transform="rotate(131 18.206 10.855)"/>
            <g id="Rectangle_296" class="cls-4" data-name="Rectangle 296" transform="rotate(44.03 6.074 33.126)">
                <rect width="7.281" height="6.761" class="cls-8" rx="2"/>
                <rect width="6.281" height="5.761" x=".5" y=".5" class="cls-10" rx="1.5"/>
            </g>
            <g id="Exclusion_2" class="cls-5" data-name="Exclusion 2">
                <path d="M12.37 14.33H5A4.505 4.505 0 0 1 .5 9.828V7.942L7.89.5h4.48c2.482 0 4.5 2.019 4.5 4.5V9.83c0 2.481-2.018 4.5-4.5 4.5z" class="cls-8" transform="rotate(44.03 4 21.656)"/>
                <path d="M12.37 13.83c2.206 0 4-1.795 4-4.001V5c0-2.205-1.794-4-4-4H8.099L1 8.148v1.68c0 2.207 1.795 4.001 4 4.001h7.37m0 1H5c-2.757 0-5-2.243-5-5V7.736L7.682 0h4.689c2.757 0 5 2.243 5 5V9.83c0 2.757-2.243 5-5 5z" class="cls-9" transform="rotate(44.03 4 21.656)"/>
            </g>
        </g>
        <rect id="Rectangle_304" width="8.403" height="3.151" class="cls-6" data-name="Rectangle 304" rx="1.575" transform="rotate(-44.03 268.757 12.476)"/>
        <path id="Path_273" d="M7.362 6.154l2.355-1.273L7.5 3.657a3.589 3.589 0 0 1-1.416-1.432L4.881 0 3.718 2.1a4.015 4.015 0 0 1-1.6 1.587L0 4.836l2.349 1.3a3.058 3.058 0 0 1 1.21 1.219l1.277 2.361 1.3-2.342a3.082 3.082 0 0 1 1.226-1.22z" class="cls-7" data-name="Path 273" transform="rotate(90 -52.064 115.427)"/>
        <path id="Path_274" d="M3.635 3.039L4.8 2.41 3.7 1.8a1.758 1.758 0 0 1-.7-.7L2.41 0l-.575 1.039a1.988 1.988 0 0 1-.791.783L0 2.387l1.16.642a1.511 1.511 0 0 1 .6.6L2.387 4.8l.64-1.157a1.517 1.517 0 0 1 .608-.604z" class="cls-7" data-name="Path 274" transform="rotate(90 -61.177 117.929)"/>
    </g>
</svg>
