<svg xmlns="http://www.w3.org/2000/svg" width="40.508" height="48.421" viewBox="0 0 40.508 48.421">
    <defs>
        <style>
            .cls-1,.cls-8{fill:#242a3c}.cls-1,.cls-4{stroke:#242a3c}.cls-2{fill:#e83c33}.cls-3{fill:#fd4d44}.cls-4{fill:#f7a14b;stroke-miterlimit:10}.cls-5{fill:#d8e1e6}.cls-6,.cls-8{stroke:none}.cls-7{fill:none}
        </style>
    </defs>
    <g id="Group_326" data-name="Group 326" transform="translate(-49 -160.448)">
        <g id="Group_325" data-name="Group 325">
            <g id="Rectangle_296" class="cls-1" data-name="Rectangle 296" transform="translate(63.801 167.904)">
                <rect width="6.913" height="6.419" class="cls-6" rx="1"/>
                <rect width="5.913" height="5.419" x=".5" y=".5" class="cls-7" rx=".5"/>
            </g>
            <g id="Exclusion_2" class="cls-2" data-name="Exclusion 2">
                <path d="M20.183 28.633H5a4.505 4.505 0 0 1-4.5-4.5V11.42L11.346.5h8.837c2.481 0 4.5 2.019 4.5 4.5v19.133c0 2.481-2.019 4.5-4.5 4.5zM13.676 4.535c-.462 0-.896.18-1.222.506l-6.948 6.948a1.73 1.73 0 0 0 1.222 2.95c.462 0 .896-.18 1.222-.506l6.948-6.948c.326-.326.506-.76.506-1.222 0-.461-.18-.896-.506-1.222a1.716 1.716 0 0 0-1.222-.506z" class="cls-6" transform="translate(49 170.867)"/>
                <path d="M20.183 28.133c2.205 0 4-1.795 4-4V5c0-2.205-1.795-4-4-4h-8.63L1 11.626v12.507c0 2.205 1.795 4 4 4h15.183M13.676 4.035c.595 0 1.155.232 1.575.652.421.421.653.981.653 1.576 0 .596-.232 1.156-.653 1.576l-6.947 6.948c-.42.42-.98.652-1.576.652a2.23 2.23 0 0 1-1.576-3.804l6.949-6.948c.42-.42.98-.652 1.575-.652m6.507 25.098H5c-2.757 0-5-2.243-5-5V11.214L11.138 0h9.045c2.757 0 5 2.243 5 5v19.133c0 2.757-2.243 5-5 5zM13.676 5.035c-.328 0-.637.128-.869.36L5.86 12.343a1.23 1.23 0 0 0 .868 2.096c.328 0 .637-.127.869-.36l6.947-6.947c.232-.232.36-.54.36-.869a1.22 1.22 0 0 0-.36-.868 1.22 1.22 0 0 0-.868-.36z" class="cls-8" transform="translate(49 170.867)"/>
            </g>
        </g>
        <rect id="Rectangle_299" width="18" height="3" class="cls-3" data-name="Rectangle 299" rx="1.5" transform="translate(53 193)"/>
        <path id="Path_228" d="M7.009 5.86l2.243-1.213-2.109-1.165a3.417 3.417 0 0 1-1.35-1.364L4.647 0 3.54 2a3.822 3.822 0 0 1-1.526 1.514L0 4.6l2.237 1.241A2.911 2.911 0 0 1 3.388 7L4.6 9.251l1.234-2.23A2.935 2.935 0 0 1 7.009 5.86z" class="cls-4" data-name="Path 228" transform="rotate(90 -38.865 122.625)"/>
        <path id="Path_229" d="M3.461 2.893l1.107-.6-1.041-.575a1.673 1.673 0 0 1-.667-.673L2.294 0l-.547.989a1.893 1.893 0 0 1-.753.746L0 2.273l1.1.611a1.439 1.439 0 0 1 .569.573l.6 1.111.609-1.1a1.444 1.444 0 0 1 .583-.575z" class="cls-4" data-name="Path 229" transform="rotate(90 -40.042 128.508)"/>
        <rect id="Rectangle_300" width="12.48" height="2.926" class="cls-5" data-name="Rectangle 300" rx="1.463" transform="translate(54.793 205.943)"/>
    </g>
</svg>
